{
    "asset" : {
        "generator" : "Khronos glTF Blender I/O v1.2.75",
        "version" : "2.0"
    },
    "scene" : 0,
    "scenes" : [
        {
            "name" : "Scene",
            "nodes" : [
                0
            ]
        }
    ],
    "nodes" : [
        {
            "mesh" : 0,
            "name" : "Text.001",
            "scale" : [
                2.4986276626586914,
                2.4986276626586914,
                2.4986276626586914
            ],
            "translation" : [
                -1.4500564336776733,
                1.3824588060379028,
                2.029330253601074
            ]
        }
    ],
    "meshes" : [
        {
            "name" : "Text.001",
            "primitives" : [
                {
                    "attributes" : {
                        "POSITION" : 0,
                        "NORMAL" : 1,
                        "TEXCOORD_0" : 2
                    },
                    "indices" : 3
                }
            ]
        }
    ],
    "accessors" : [
        {
            "bufferView" : 0,
            "componentType" : 5126,
            "count" : 1835,
            "max" : [
                1.3580148220062256,
                0.20000000298023224,
                0.008426966145634651
            ],
            "min" : [
                -0.1230243518948555,
                -0.20000000298023224,
                -1.1585596799850464
            ],
            "type" : "VEC3"
        },
        {
            "bufferView" : 1,
            "componentType" : 5126,
            "count" : 1835,
            "type" : "VEC3"
        },
        {
            "bufferView" : 2,
            "componentType" : 5126,
            "count" : 1835,
            "type" : "VEC2"
        },
        {
            "bufferView" : 3,
            "componentType" : 5123,
            "count" : 4596,
            "type" : "SCALAR"
        }
    ],
    "bufferViews" : [
        {
            "buffer" : 0,
            "byteLength" : 22020,
            "byteOffset" : 0
        },
        {
            "buffer" : 0,
            "byteLength" : 22020,
            "byteOffset" : 22020
        },
        {
            "buffer" : 0,
            "byteLength" : 14680,
            "byteOffset" : 44040
        },
        {
            "buffer" : 0,
            "byteLength" : 9192,
            "byteOffset" : 58720
        }
    ],
    "buffers" : [
        {
            "byteLength" : 67912,
            "uri" : "data:application/octet-stream;base64,"
        }
    ]
}
