{
    "asset" : {
        "generator" : "Khronos glTF Blender I/O v1.2.75",
        "version" : "2.0"
    },
    "scene" : 0,
    "scenes" : [
        {
            "name" : "Scene",
            "nodes" : [
                0
            ]
        }
    ],
    "nodes" : [
        {
            "mesh" : 0,
            "name" : "Text",
            "translation" : [
                -1.7000000476837158,
                0.25,
                0
            ]
        }
    ],
    "materials" : [
        {
            "doubleSided" : true,
            "emissiveFactor" : [
                0,
                0,
                0
            ],
            "name" : "Text.005",
            "pbrMetallicRoughness" : {
                "baseColorFactor" : [
                    0,
                    0.2705882489681244,
                    0.7333333492279053,
                    1
                ],
                "metallicFactor" : 0,
                "roughnessFactor" : 0.5
            }
        }
    ],
    "meshes" : [
        {
            "name" : "Text.005",
            "primitives" : [
                {
                    "attributes" : {
                        "POSITION" : 0,
                        "NORMAL" : 1,
                        "TEXCOORD_0" : 2
                    },
                    "indices" : 3,
                    "material" : 0
                }
            ]
        }
    ],
    "accessors" : [
        {
            "bufferView" : 0,
            "componentType" : 5126,
            "count" : 4921,
            "max" : [
                4.2220001220703125,
                0.20000000298023224,
                1.0089999437332153
            ],
            "min" : [
                0.07700000703334808,
                -0.20000000298023224,
                -0.6910000443458557
            ],
            "type" : "VEC3"
        },
        {
            "bufferView" : 1,
            "componentType" : 5126,
            "count" : 4921,
            "type" : "VEC3"
        },
        {
            "bufferView" : 2,
            "componentType" : 5126,
            "count" : 4921,
            "type" : "VEC2"
        },
        {
            "bufferView" : 3,
            "componentType" : 5123,
            "count" : 12684,
            "type" : "SCALAR"
        }
    ],
    "bufferViews" : [
        {
            "buffer" : 0,
            "byteLength" : 59052,
            "byteOffset" : 0
        },
        {
            "buffer" : 0,
            "byteLength" : 59052,
            "byteOffset" : 59052
        },
        {
            "buffer" : 0,
            "byteLength" : 39368,
            "byteOffset" : 118104
        },
        {
            "buffer" : 0,
            "byteLength" : 25368,
            "byteOffset" : 157472
        }
    ],
    "buffers" : [
        {
            "byteLength" : 182840,
            "uri" : "data:application/octet-stream;base64,"
        }
    ]
}
