{
    "asset" : {
        "generator" : "Khronos glTF Blender I/O v1.2.75",
        "version" : "2.0"
    },
    "scene" : 0,
    "scenes" : [
        {
            "name" : "Scene",
            "nodes" : [
                0
            ]
        }
    ],
    "nodes" : [
        {
            "mesh" : 0,
            "name" : "Text",
            "translation" : [
                -1.7000000476837158,
                0.25,
                0
            ]
        }
    ],
    "materials" : [
        {
            "doubleSided" : true,
            "emissiveFactor" : [
                0,
                0,
                0
            ],
            "name" : "Text.013",
            "pbrMetallicRoughness" : {
                "baseColorFactor" : [
                    0,
                    0.2705882489681244,
                    0.7333333492279053,
                    1
                ],
                "metallicFactor" : 0,
                "roughnessFactor" : 0.5
            }
        }
    ],
    "meshes" : [
        {
            "name" : "Text.013",
            "primitives" : [
                {
                    "attributes" : {
                        "POSITION" : 0,
                        "NORMAL" : 1,
                        "TEXCOORD_0" : 2
                    },
                    "indices" : 3,
                    "material" : 0
                }
            ]
        }
    ],
    "accessors" : [
        {
            "bufferView" : 0,
            "componentType" : 5126,
            "count" : 5351,
            "max" : [
                4.5360002517700195,
                0.20000000298023224,
                1.0089999437332153
            ],
            "min" : [
                0.07700000703334808,
                -0.20000000298023224,
                -0.6860000491142273
            ],
            "type" : "VEC3"
        },
        {
            "bufferView" : 1,
            "componentType" : 5126,
            "count" : 5351,
            "type" : "VEC3"
        },
        {
            "bufferView" : 2,
            "componentType" : 5126,
            "count" : 5351,
            "type" : "VEC2"
        },
        {
            "bufferView" : 3,
            "componentType" : 5123,
            "count" : 13608,
            "type" : "SCALAR"
        }
    ],
    "bufferViews" : [
        {
            "buffer" : 0,
            "byteLength" : 64212,
            "byteOffset" : 0
        },
        {
            "buffer" : 0,
            "byteLength" : 64212,
            "byteOffset" : 64212
        },
        {
            "buffer" : 0,
            "byteLength" : 42808,
            "byteOffset" : 128424
        },
        {
            "buffer" : 0,
            "byteLength" : 27216,
            "byteOffset" : 171232
        }
    ],
    "buffers" : [
        {
            "byteLength" : 198448,
            "uri" : "data:application/octet-stream;base64,"
        }
    ]
}
