{
    "asset" : {
        "generator" : "Khronos glTF Blender I/O v1.2.75",
        "version" : "2.0"
    },
    "scene" : 0,
    "scenes" : [
        {
            "name" : "Scene",
            "nodes" : [
                0
            ]
        }
    ],
    "nodes" : [
        {
            "mesh" : 0,
            "name" : "Text",
            "translation" : [
                -1.7000000476837158,
                0.25,
                0
            ]
        }
    ],
    "materials" : [
        {
            "doubleSided" : true,
            "emissiveFactor" : [
                0,
                0,
                0
            ],
            "name" : "Text.015",
            "pbrMetallicRoughness" : {
                "baseColorFactor" : [
                    0.9686274528503418,
                    0.47843137383461,
                    0.019607843831181526,
                    1
                ],
                "metallicFactor" : 0,
                "roughnessFactor" : 0.5
            }
        }
    ],
    "meshes" : [
        {
            "name" : "Text.015",
            "primitives" : [
                {
                    "attributes" : {
                        "POSITION" : 0,
                        "NORMAL" : 1,
                        "TEXCOORD_0" : 2
                    },
                    "indices" : 3,
                    "material" : 0
                }
            ]
        }
    ],
    "accessors" : [
        {
            "bufferView" : 0,
            "componentType" : 5126,
            "count" : 6284,
            "max" : [
                4.4670000076293945,
                0.20000000298023224,
                1.0089999437332153
            ],
            "min" : [
                0.07700000703334808,
                -0.20000000298023224,
                -0.6910000443458557
            ],
            "type" : "VEC3"
        },
        {
            "bufferView" : 1,
            "componentType" : 5126,
            "count" : 6284,
            "type" : "VEC3"
        },
        {
            "bufferView" : 2,
            "componentType" : 5126,
            "count" : 6284,
            "type" : "VEC2"
        },
        {
            "bufferView" : 3,
            "componentType" : 5123,
            "count" : 15960,
            "type" : "SCALAR"
        }
    ],
    "bufferViews" : [
        {
            "buffer" : 0,
            "byteLength" : 75408,
            "byteOffset" : 0
        },
        {
            "buffer" : 0,
            "byteLength" : 75408,
            "byteOffset" : 75408
        },
        {
            "buffer" : 0,
            "byteLength" : 50272,
            "byteOffset" : 150816
        },
        {
            "buffer" : 0,
            "byteLength" : 31920,
            "byteOffset" : 201088
        }
    ],
    "buffers" : [
        {
            "byteLength" : 233008,
            "uri" : "data:application/octet-stream;base64,"
        }
    ]
}
